<?xml version="1.0" ?><!DOCTYPE svg  PUBLIC '-//W3C//DTD SVG 1.1//EN'  'http://www.w3.org/Graphics/SVG/1.1/DTD/svg11.dtd'><svg height="30px" style="fill-rule:evenodd;clip-rule:evenodd;stroke-linejoin:round;stroke-miterlimit:2;" version="1.1" viewBox="0 0 134 134" width="30px" xml:space="preserve" xmlns="http://www.w3.org/2000/svg" xmlns:serif="http://www.serif.com/" xmlns:xlink="http://www.w3.org/1999/xlink"><path d="M66.667,4.167c-34.495,-0 -62.5,28.005 -62.5,62.5c-0,34.494 28.005,62.5 62.5,62.5c34.494,-0 62.5,-28.006 62.5,-62.5c-0,-34.495 -28.006,-62.5 -62.5,-62.5Zm-0,8.333c29.895,-0 54.166,24.271 54.166,54.167c0,29.895 -24.271,54.166 -54.166,54.166c-29.896,0 -54.167,-24.271 -54.167,-54.166c0,-29.896 24.271,-54.167 54.167,-54.167Zm-0,8.333l-0,0c-25.296,0 -45.834,20.538 -45.834,45.834c0,25.296 20.538,45.833 45.834,45.833l-0,-0c25.296,-0 45.833,-20.537 45.833,-45.833c0,-25.296 -20.537,-45.834 -45.833,-45.834Zm-4.167,8.563c-7.229,0.8 -13.841,3.659 -19.235,7.976l2.778,2.778c1.626,1.626 1.626,4.267 -0,5.893c-1.626,1.626 -4.267,1.626 -5.893,-0l-2.778,-2.778c-4.317,5.396 -7.175,12.007 -7.976,19.235l3.937,0c2.3,0 4.167,1.867 4.167,4.167c0,2.299 -1.867,4.166 -4.167,4.166l-3.937,0c0.8,7.229 3.659,13.842 7.976,19.236l2.778,-2.778c1.626,-1.626 4.267,-1.626 5.893,-0c1.626,1.626 1.626,4.266 -0,5.892l-2.778,2.778c5.396,4.317 12.007,7.176 19.235,7.976l0,-3.937c0,-2.3 1.867,-4.167 4.167,-4.167c2.299,0 4.166,1.867 4.166,4.167l0,3.937c7.229,-0.8 13.842,-3.659 19.236,-7.976l-2.778,-2.778c-1.626,-1.626 -1.626,-4.266 -0,-5.892c1.626,-1.627 4.266,-1.626 5.892,-0l2.778,2.778c4.317,-5.396 7.176,-12.007 7.976,-19.236l-3.937,0c-2.3,0 -4.167,-1.867 -4.167,-4.166c0,-2.3 1.867,-4.167 4.167,-4.167l3.937,-0c-0.8,-7.229 -3.659,-13.841 -7.976,-19.235l-2.778,2.778c-1.626,1.626 -4.266,1.626 -5.892,-0c-1.626,-1.626 -1.626,-4.267 -0,-5.893l2.778,-2.778c-5.396,-4.317 -12.007,-7.175 -19.236,-7.976l0,3.937c0,2.3 -1.867,4.167 -4.166,4.167c-2.3,-0 -4.167,-1.867 -4.167,-4.167l0,-3.937Zm-12.5,41.437l16.667,0c1.105,0 2.165,-0.439 2.946,-1.22c0.781,-0.781 1.22,-1.841 1.22,-2.946l0,-16.667c0,-2.3 -1.867,-4.167 -4.166,-4.167c-2.3,0 -4.167,1.867 -4.167,4.167l0,12.5c0,0 -12.5,-0 -12.5,-0c-2.3,-0 -4.167,1.867 -4.167,4.167c0,2.299 1.867,4.166 4.167,4.166Z"/></svg>